<svg id="Camada_1" data-name="Camada 1" xmlns="http://www.w3.org/2000/svg" xmlns:xlink="http://www.w3.org/1999/xlink" viewBox="0 0 64 64"><defs><style>.cls-1{fill:url(#Gradiente_sem_nome_31);}</style><linearGradient id="Gradiente_sem_nome_31" x1="-15.09" y1="32.92" x2="79.99" y2="32.92" gradientUnits="userSpaceOnUse"><stop offset="0" stop-color="#6acee3"/><stop offset="0.33" stop-color="#845eff"/><stop offset="0.66" stop-color="#bc56ff"/><stop offset="1" stop-color="#d44eff"/></linearGradient></defs><path class="cls-1" d="M54.43,26.34h5L64,33.18,59.41,39.5h-5L59,33.18l-4.59-6.84M24.82,52.5l4.54-18.42c1.16-4.47,1.91-8.25,2.61-12.43h.12a109.86,109.86,0,0,0,2.15,12.43L38.3,52.5H46L56.49,13.34H49.23L45.16,31.06c-1,4.77-2,9.24-2.67,13.54h-.12C41.79,40.36,41,36,40,31.35l-3.89-18H28.6L24.36,31.06c-1.1,4.94-2.21,9.59-2.85,13.71H21.4c-.64-3.89-1.57-8.89-2.56-13.65L15.12,13.34H7.51L17.1,52.5ZM9.57,26.34h-5L0,33.18,4.59,39.5h5L5,33.18l4.59-6.84"/></svg>